<svg id="Capa_1" enable-background="new 0 0 512 512" height="512" viewBox="0 0 512 512" width="512" xmlns="http://www.w3.org/2000/svg"><g><path d="m396.515 311.461c-5.805-7.319-14.487-11.518-23.821-11.518-13.6 0-25.641 9.143-29.281 22.233-1.11 3.991 1.226 8.126 5.216 9.235.673.188 1.349.276 2.014.276 3.284 0 6.299-2.174 7.222-5.492 1.843-6.626 7.941-11.253 14.83-11.253 4.728 0 9.126 2.128 12.067 5.838 2.574 3.247 7.292 3.79 10.537 1.217 3.244-2.573 3.789-7.289 1.216-10.536z"/><path d="m421.004 273.623c4.908-4.816 12.505-5.775 18.469-2.331 4.095 2.364 6.84 6.405 7.533 11.09.551 3.726 3.753 6.403 7.409 6.403.365 0 .735-.026 1.107-.082 4.098-.605 6.928-4.419 6.321-8.517-1.366-9.241-6.787-17.218-14.87-21.885-11.778-6.8-26.775-4.903-36.476 4.614-2.956 2.901-3.001 7.65-.101 10.606 2.903 2.958 7.652 3.002 10.608.102z"/><path d="m62.583 252.522c.847.308 1.713.454 2.564.454 3.063 0 5.94-1.892 7.049-4.937 3.301-9.067 13.364-13.761 22.431-10.46 3.893 1.413 8.196-.592 9.612-4.483s-.591-8.195-4.483-9.612c-16.837-6.13-35.525 2.585-41.655 19.425-1.417 3.892.589 8.196 4.482 9.613z"/><path d="m190.491 207.876c7.489-2.729 15.808 1.149 18.535 8.644 1.108 3.045 3.984 4.937 7.049 4.937.852 0 1.718-.146 2.564-.454 3.893-1.417 5.899-5.721 4.482-9.613-2.691-7.395-8.102-13.299-15.234-16.625-7.132-3.325-15.132-3.675-22.527-.983-3.893 1.417-5.899 5.721-4.482 9.613 1.416 3.89 5.719 5.896 9.613 4.481z"/><path d="m266.345 306.622c-6.588-1.766-13.473-.859-19.383 2.552-3.587 2.071-4.816 6.658-2.745 10.245 2.071 3.588 6.66 4.815 10.245 2.745 2.438-1.408 5.281-1.784 8-1.053 2.72.729 4.993 2.473 6.401 4.911 1.389 2.407 3.91 3.752 6.502 3.752 1.272 0 2.562-.324 3.742-1.006 3.588-2.07 4.817-6.657 2.746-10.244-3.41-5.909-8.917-10.136-15.508-11.902z"/><path d="m499.5 359.884h-17.397c1.404-1.594 2.715-3.284 3.892-5.091 14.877-2.832 26.005-15.927 26.005-31.46 0-5.951-1.665-11.762-4.753-16.781 1.957-5.074 2.979-10.512 2.979-15.961 0-12.931-5.756-25.212-15.396-33.554 2.044-4.282 3.131-9.001 3.131-13.804 0-15.163-10.59-27.898-24.763-31.198-2.046-17.988-17.359-32.01-35.886-32.01-2.158 0-4.295.19-6.396.567-7.493-13.479-23.376-22.988-39.581-22.495-1.321-9.215-5.474-17.763-12.067-24.591-8.285-8.58-19.415-13.419-31.34-13.628-8.135-.123-16.107 1.947-23.078 5.969-10.956-11.706-26.021-18.447-42.317-18.731-.045-.001-.089-.001-.134-.001-4.081 0-7.425 3.272-7.496 7.369-.072 4.142 3.227 7.558 7.368 7.63 14.025.244 26.836 6.889 35.146 18.23 1.222 1.666 3.077 2.756 5.128 3.01 2.048.252 4.115-.351 5.707-1.668 5.449-4.515 12.375-6.925 19.414-6.81 7.919.138 15.31 3.352 20.812 9.049 4.559 4.722 7.362 10.681 8.112 17.092-8.979 3.452-16.736 9.755-21.882 17.999-5.316-2.192-11.028-3.33-16.858-3.33-24.425 0-44.296 19.871-44.296 44.296 0 2.583.223 5.141.664 7.658-6.339 2.082-11.948 5.888-16.234 10.873-1.815-2.031-3.779-3.928-5.89-5.658 2.762-5.312 4.236-11.252 4.236-17.306 0-18.165-12.981-33.354-30.155-36.778-.686-8.034-3.622-15.434-8.167-21.575 2.199-10.247 7.909-19.337 16.317-25.832 3.278-2.532 3.883-7.243 1.351-10.521-2.535-3.279-7.243-3.882-10.521-1.351-8.98 6.937-15.653 16.099-19.479 26.496-6.389-3.846-13.861-6.069-21.847-6.069-2.942 0-5.85.3-8.697.896-9.038-16.845-26.859-27.754-46.303-27.754-18.729 0-36.038 10.196-45.345 26.062-6.669-2.967-13.901-4.51-21.294-4.51-3.262 0-6.53.303-9.715.898-4.071.763-6.754 4.682-5.991 8.753.764 4.071 4.682 6.75 8.753 5.991 2.275-.427 4.615-.643 6.953-.643 7.309 0 14.399 2.112 20.502 6.108.003.002.005.004.008.006 6.274 4.108 11.026 9.724 13.891 16.256-7.404 1.289-14.414 4.754-19.937 10.199-2.95 2.908-2.984 7.657-.077 10.606 2.907 2.95 7.656 2.982 10.606.077 6.16-6.072 15.387-8.085 23.511-5.129 6.819 2.481 12.051 8.146 13.994 15.149.921 3.321 3.937 5.497 7.223 5.497.663 0 1.339-.089 2.009-.275 3.991-1.107 6.329-5.24 5.222-9.231-3.236-11.665-11.953-21.099-23.316-25.235-1.017-.37-2.046-.678-3.081-.956-2.8-9.994-8.517-18.802-16.553-25.566 6.584-11.584 19.089-19.058 32.637-19.058 15.583 0 29.708 9.81 35.148 24.411.703 1.887 2.136 3.411 3.975 4.231 1.84.819 3.931.865 5.804.127 3.22-1.269 6.608-1.912 10.073-1.912 15.163 0 27.5 12.337 27.5 27.5 0 .768-.039 1.575-.118 2.469-.187 2.097.517 4.175 1.938 5.728 1.477 1.613 3.578 2.509 5.782 2.433 12.359.056 22.398 10.128 22.398 22.5 0 5.269-1.861 10.394-5.241 14.431-1.411 1.685-2.012 3.902-1.645 6.068.367 2.167 1.666 4.062 3.554 5.188 3.968 2.366 7.437 5.446 10.275 9.043-3.524.546-6.934 1.653-10.085 3.301-7.822-7.388-18.106-11.517-29.103-11.517-19.478 0-36.268 13.281-41.098 31.68-1.624.463-3.191 1.05-4.695 1.745-7.454-6.87-17.185-10.844-27.058-10.844-15.441 0-29.849 9.632-36.407 23.641-7.292-.253-14.32 2.151-19.948 6.874-3.173 2.663-3.587 7.394-.924 10.566 2.662 3.172 7.393 3.586 10.566.924 2.958-2.483 6.702-3.668 10.556-3.328 3.848.336 7.335 2.151 9.818 5.111 1.483 1.768 3.608 2.679 5.749 2.679 1.701 0 3.412-.575 4.817-1.755 3.173-2.662 3.587-7.393.924-10.566-2.028-2.417-4.389-4.452-6.99-6.076 4.462-7.829 12.88-13.07 21.839-13.07 5.361 0 10.689 1.938 15.093 5.345-4.306 5.528-6.848 12.478-6.848 20.001 0 8.118 2.969 15.768 8.288 21.682-1.032 3.456-1.554 7.041-1.554 10.712 0 8.436 2.801 16.228 7.52 22.5h-100.732c-12.406 0-22.5-10.094-22.5-22.5 0-1.112.084-2.24.25-3.354.527-3.54-1.521-6.96-4.89-8.167-14.87-5.321-24.86-19.512-24.86-35.31 0-6.465 1.682-12.848 4.863-18.459 1.999-3.525.835-8.001-2.627-10.107-8.288-5.04-13.236-13.831-13.236-23.517 0-14.488 11.316-26.541 25.763-27.438 2.394-.148 4.571-1.433 5.859-3.454 1.289-2.021 1.533-4.538.658-6.771-1.718-4.378-2.589-8.983-2.589-13.688 0-7.642 2.283-14.992 6.602-21.257 2.351-3.41 1.492-8.08-1.918-10.432s-8.08-1.492-10.432 1.918c-6.053 8.779-9.252 19.073-9.252 29.771 0 3.552.354 7.063 1.059 10.507-17.82 5.125-30.75 21.593-30.75 40.844 0 12.646 5.455 24.303 14.869 32.31-2.544 6.257-3.869 12.983-3.869 19.773 0 20.181 11.646 38.488 29.502 47.2.08 8.294 2.868 15.952 7.519 22.133h-35.521c-6.893 0-12.5 5.607-12.5 12.5v20c0 6.893 5.607 12.5 12.5 12.5h487c6.893 0 12.5-5.607 12.5-12.5v-20c0-6.892-5.607-12.5-12.5-12.5zm-313.287-22.5c0-3.333.714-6.544 2.123-9.545.005-.01.007-.021.011-.031.005-.011.012-.021.018-.032 3.7-8.078 11.829-13.297 20.708-13.297 4.143 0 7.5-3.357 7.5-7.5s-3.357-7.5-7.5-7.5c-10.868 0-21.047 4.724-28.106 12.576-.968-2.192-1.488-4.586-1.488-7.064 0-8.998 6.736-16.48 15.669-17.405 3.467-.358 6.229-3.06 6.668-6.518 1.734-13.684 13.457-24.003 27.27-24.003 6.608 0 12.816 2.312 17.725 6.475-3.825 5.407-5.941 11.904-5.941 18.656 0 4.143 3.357 7.5 7.5 7.5s7.5-3.357 7.5-7.5c0-5.034 2.187-9.812 5.998-13.108 3.165-2.71 7.202-4.203 11.367-4.203 9.649 0 17.5 7.851 17.5 17.5 0 2.949 1.188 6.853 5.427 8.451 9.633 2.726 16.36 11.626 16.36 21.645 0 6.397-2.742 12.515-7.522 16.784-2.2 1.964-3.045 5.036-2.158 7.849.537 1.701.809 3.475.809 5.271 0 9.649-7.851 17.5-17.5 17.5h-77.437c-12.407-.001-22.501-10.094-22.501-22.501zm310.787 52.5h-482v-15h350.773c4.143 0 7.5-3.357 7.5-7.5s-3.357-7.5-7.5-7.5h-52.259c3.244-5.056 5.135-11.059 5.135-17.5 0-1.751-.14-3.491-.417-5.207 5.948-6.8 9.289-15.576 9.289-24.697 0-14.816-8.83-28.166-22.04-34.161-1.437-11.459-8.863-21.079-19.035-25.624 3.279-6.643 9.945-11.317 17.613-11.794 2.394-.148 4.571-1.433 5.86-3.455 1.288-2.022 1.532-4.539.656-6.771-1.342-3.419-2.022-7.016-2.022-10.691 0-16.154 13.142-29.296 29.296-29.296 5.712 0 11.252 1.651 16.019 4.773 4.246 2.788 7.643 6.555 9.94 10.936-6.648 3.106-12.197 8.443-15.443 15.276-1.777 3.741-.186 8.216 3.556 9.993 1.039.493 2.135.728 3.214.728 2.805 0 5.495-1.581 6.779-4.283 2.81-5.914 8.853-9.735 15.396-9.735 5.492 0 10.68 2.675 13.877 7.154 2.404 3.37 7.089 4.154 10.461 1.748 3.372-2.405 4.154-7.09 1.748-10.461-5.688-7.972-14.738-12.893-24.454-13.392-2.527-6.277-6.466-11.875-11.526-16.406 5.272-8.509 14.71-13.954 24.923-13.954 12.174 0 23.209 7.664 27.459 19.07.703 1.886 2.136 3.411 3.975 4.23 1.839.822 3.931.867 5.803.128 2.473-.974 5.076-1.468 7.736-1.468 11.645 0 21.118 9.474 21.118 21.118 0 .592-.029 1.213-.091 1.897-.189 2.128.538 4.236 1.999 5.795 1.462 1.559 3.533 2.398 5.654 2.368l.018-.001c9.354.044 16.95 7.667 16.95 17.03 0 3.987-1.408 7.865-3.967 10.921-1.41 1.685-2.011 3.902-1.644 6.068.367 2.167 1.666 4.062 3.554 5.188 8.968 5.348 14.322 14.761 14.322 25.181 0 4.715-1.093 9.225-3.249 13.403-1.396 2.705-1.018 5.986.957 8.304 2.622 3.076 4.066 6.995 4.066 11.035 0 9.01-7.039 16.477-16.024 16.998-2.614.151-4.961 1.656-6.189 3.97-5.104 9.612-15.024 15.583-25.889 15.583h-48.124c-4.143 0-7.5 3.357-7.5 7.5s3.357 7.5 7.5 7.5h96.227z"/></g></svg>