<svg fill="#fff" xmlns="http://www.w3.org/2000/svg" viewBox="0 0 512.001 512.001" style="enable-background:new 0 0 512.001 512.001" xml:space="preserve"><path d="M498.831 392.769 356.6 250.538a45.255 45.255 0 0 0-5.551-4.714l37.452-37.451c33.573 5.969 68.433-4.793 92.757-29.116 31.418-31.418 39.664-79.45 20.521-119.521-4.461-9.336-16.832-11.45-24.143-4.141-8.91 8.909-1.133 1.35-44.851 43.412h-19.776V79.233c42.062-43.718 34.504-35.942 43.412-44.85 7.318-7.317 5.186-19.686-4.141-24.141C412.212-8.903 364.178-.656 332.761 30.761c-24.323 24.323-35.086 59.183-29.116 92.757l-37.033 37.033-11.898-11.897c-5.858-5.858-15.356-5.858-21.213 0l-10.607 10.607-76.219-76.219V46.827a15 15 0 0 0-10.256-14.23L40.958.776A15.003 15.003 0 0 0 25.607 4.4L4.394 25.613A15 15 0 0 0 .77 40.963l31.821 95.461a15 15 0 0 0 14.23 10.257h36.214l76.219 76.219-10.607 10.607c-5.854 5.854-5.857 15.356 0 21.213l11.898 11.898-37.033 37.032c-33.574-5.968-68.434 4.794-92.757 29.116-40.94 40.94-40.94 107.555 0 148.495 40.939 40.939 107.554 40.942 148.495 0 24.323-24.323 35.086-59.183 29.117-92.757l37.451-37.452a45.247 45.247 0 0 0 4.713 5.551l142.232 142.231c17.545 17.545 46.095 17.546 63.641 0l42.427-42.427c17.546-17.543 17.546-46.093 0-63.638zM330.669 138.922a15.001 15.001 0 0 0 3.886-14.478c-6.897-25.824.544-53.593 19.42-72.47 17.052-17.051 40.951-24.55 63.999-21.173L387.2 62.788a15.004 15.004 0 0 0-4.19 10.4v40.82c0 8.284 6.716 15 15 15h40.82c3.878 0 7.605-1.502 10.399-4.191l31.988-30.776c3.376 23.05-4.122 46.949-21.173 64-18.876 18.875-46.644 26.319-72.47 19.42a15.003 15.003 0 0 0-14.476 3.883l-53.188 53.187c-13.52-5.728-23.548-17.775-26.511-32.586-1.137-5.681-1.986-11.679-6.523-19.234l43.793-43.789zM99.855 121.075a14.999 14.999 0 0 0-10.606-4.393H57.633l-25.471-76.41 8.103-8.103 76.41 25.47v31.616c0 3.978 1.581 7.793 4.394 10.607l80.612 80.612-21.213 21.213-80.613-80.612zm81.488 252.027a15 15 0 0 0-3.886 14.477c6.897 25.825-.544 53.593-19.42 72.47-29.244 29.243-76.826 29.243-106.068 0-29.243-29.243-29.243-76.825 0-106.068 18.876-18.876 46.646-26.32 72.47-19.42a15 15 0 0 0 14.477-3.885l43.793-43.792c7.486 4.496 13.381 5.352 19.234 6.523 14.811 2.962 26.859 12.991 32.587 26.511l-53.187 53.184zm296.275 62.093-10.608 10.607-138.047-138.047c-5.857-5.858-15.355-5.858-21.214 0-5.858 5.858-5.858 15.355 0 21.214l138.048 138.048-10.606 10.606c-5.851 5.85-15.366 5.848-21.215 0L271.745 335.391c-3.769-3.77-4.05-7.408-5.083-12.568-5.957-29.785-29.052-52.879-58.836-58.836-5.15-1.03-8.795-1.31-12.568-5.083l-14.79-14.79 63.641-63.641 14.791 14.791c3.777 3.777 4.056 7.433 5.083 12.568 5.957 29.784 29.052 52.879 58.836 58.836 5.155 1.031 8.795 1.31 12.567 5.083l142.232 142.231c5.849 5.848 5.849 15.365 0 21.213z"/><path d="M136.824 375.194c-17.587-17.586-46.053-17.589-63.641 0-17.546 17.546-17.546 46.095 0 63.641 17.587 17.587 46.052 17.588 63.641 0 17.546-17.546 17.546-46.094 0-63.641zm-21.215 42.427c-5.863 5.862-15.35 5.863-21.213 0-5.848-5.848-5.848-15.365 0-21.213 5.861-5.862 15.35-5.862 21.213 0 5.85 5.849 5.85 15.365 0 21.213z"/></svg>