<svg id="Layer_2" fill="#fff" height="512" viewBox="0 0 60 60" width="512" xmlns="http://www.w3.org/2000/svg"><path d="m53 28h-9.99v-6h9c.29 0 .57-.13.76-.34.19-.22.28-.51.23-.8l-2-14c-.07-.49-.49-.86-.99-.86h-16c-.5 0-.92.37-.99.86l-2 14c-.04.29.04.58.23.8s.47.34.76.34h9v6h-34.01c-.55 0-1 .45-1 1v24c0 .55.45 1 1 1h46c.55 0 1-.45 1-1v-24c0-.55-.45-1-1-1zm-18.69-16h3.69v3h-4.12zm5.69 0h4.02v3h-4.02zm0-2v-2h4.02v2zm10.14 5h-4.12v-3h3.69zm-6.12 2v3h-4.02v-3zm2 3v-3h4.41l.43 3zm3.41-10h-3.41v-2h3.12zm-11.43-2v2h-3.41l.29-2zm-4.41 9h4.41v3h-4.84zm-25.59 13h21v22h-9.99v-4.25c4.08-1.17 6.27-4.09 6.29-8.51 0-.3-.13-.59-.37-.78s-.54-.26-.84-.2c-1.14.25-2.14.62-3.01 1.11.08-2.05-.7-4.08-2.35-6.03-.2-.23-.47-.39-.79-.35-.3.01-.59.15-.77.4-1.44 1.9-2.12 3.84-2.05 5.76-.81-.48-1.73-.87-2.78-1.15-.29-.08-.61-.02-.85.16-.25.18-.39.46-.41.77-.18 4.44 1.87 7.48 5.93 8.83v4.24h-9.01zm8.98 15.61c-2.39-.98-3.65-2.69-3.88-5.26 2.4.97 3.65 2.68 3.88 5.26zm3.15-2.78c.69-1.01 1.71-1.76 3.08-2.25-.34 2.56-1.68 4.21-4.12 5.08.1-.75.3-1.41.57-2.01.17-.28.33-.55.47-.82zm-1.87-.73c-.03.04-.06.08-.08.12-1.39-2.16-1.45-4.28-.17-6.52 1.38 2.13 1.45 4.21.25 6.4zm22.64 3.55c-2.44-.87-3.77-2.52-4.12-5.08 1.38.49 2.39 1.24 3.08 2.25.14.28.29.55.47.82.28.6.47 1.27.57 2.01zm1.09-9.94c1.28 2.24 1.23 4.35-.17 6.52-.02-.04-.06-.08-.08-.12-1.2-2.2-1.13-4.28.25-6.4zm4.91 4.63c-.23 2.58-1.48 4.28-3.88 5.26.23-2.57 1.48-4.28 3.88-5.26zm5.1 11.66h-9.01v-4.26c4.06-1.35 6.11-4.39 5.93-8.83-.01-.3-.16-.58-.41-.77-.24-.18-.56-.24-.85-.16-1.05.28-1.97.67-2.78 1.15.07-1.92-.61-3.85-2.05-5.76-.18-.24-.47-.39-.77-.4-.33-.02-.59.12-.79.35-1.65 1.95-2.43 3.98-2.35 6.03-.87-.49-1.87-.86-3.01-1.11-.3-.06-.61.01-.84.2-.24.19-.37.48-.37.78.03 4.43 2.21 7.34 6.29 8.51v4.27h-9.99v-22h21z"/><path d="m16 19c2.21 0 4-1.79 4-4s-1.79-4-4-4-4 1.79-4 4 1.79 4 4 4zm0-6c1.1 0 2 .9 2 2s-.9 2-2 2-2-.9-2-2 .9-2 2-2z"/><path d="m16 10c.55 0 1-.45 1-1v-2c0-.55-.45-1-1-1s-1 .45-1 1v2c0 .55.45 1 1 1z"/><path d="m8.57 11.87 1.73 1c.16.09.33.13.5.13.35 0 .68-.18.87-.5.28-.48.11-1.09-.37-1.37l-1.73-1c-.48-.28-1.09-.11-1.37.37-.27.48-.11 1.09.37 1.37z"/><path d="m9.07 20c.17 0 .34-.04.5-.13l1.73-1c.48-.28.64-.89.37-1.37-.28-.48-.89-.64-1.37-.37l-1.73 1c-.48.28-.64.89-.37 1.37.19.32.53.5.87.5z"/><path d="m15 21v2c0 .55.45 1 1 1s1-.45 1-1v-2c0-.55-.45-1-1-1s-1 .45-1 1z"/><path d="m20.7 18.87 1.73 1c.16.09.33.13.5.13.35 0 .68-.18.87-.5.28-.48.11-1.09-.37-1.37l-1.73-1c-.48-.28-1.09-.11-1.37.37s-.11 1.09.37 1.37z"/><path d="m21.2 13c.17 0 .34-.04.5-.13l1.73-1c.48-.28.64-.89.37-1.37-.28-.48-.89-.64-1.37-.37l-1.73 1c-.48.28-.64.89-.37 1.37.19.32.52.5.87.5z"/></svg>