<svg height="488pt" viewBox="0 -1 488.80116 488" width="488pt" xmlns="http://www.w3.org/2000/svg"><path d="m480.800781 198.054688h-256c-2.859375-.003907-5.503906 1.523437-6.933593 4l-1.792969 3.105468-29.601563-29.601562-11.3125 11.3125 32.601563 32.601562-73.03125 126.582032c-1.429688 2.476562-1.429688 5.523437 0 8 1.429687 2.476562 4.070312 4 6.925781 4h144v112h-280v16h480v-96c0-4.417969-3.582031-8-8-8h-8v-8h-16v8h-40v-8h-16v8h-8c-4.417969 0-8 3.582031-8 8v80h-48v-112h64c2.859375 0 5.5-1.523438 6.929688-4l83.144531-144c1.429687-2.476563 1.429687-5.523438 0-8-1.429688-2.476563-4.070313-4-6.929688-4zm-155.144531 144h-42.144531l18.480469-32h45.519531l-18.476563 32zm31.097656-48h-45.496094l18.480469-32h45.519531zm36.953125-32h45.550781l-18.472656 32h-45.527344zm-54.761719-16 18.472657-32h45.519531l-18.472656 32zm-18.480468 0h-45.519532l18.472657-32h45.519531zm-64 0h-45.519532l18.472657-32h45.519531zm-54.757813 16h45.550781l-18.472656 32h-45.527344zm64 0h45.550781l-18.472656 32h-45.527344zm17.804688 48-18.476563 32h-45.523437l18.480469-32zm82.480469 0h45.519531l-18.476563 32h-45.523437zm82.472656-64h-45.519532l18.472657-32h45.519531zm-274.472656 64h45.519531l-18.476563 32h-45.523437zm223.664062 88h72v72h-72zm-80 72h-16v-112h16zm0 0"/><path d="m149.65625 102.054688c0-26.507813-21.488281-48-48-48-26.507812 0-48 21.492187-48 48 0 26.511718 21.492188 48 48 48 26.5-.027344 47.976562-21.5 48-48zm-48 32c-17.671875 0-32-14.328126-32-32 0-17.671876 14.328125-32 32-32 17.675781 0 32 14.328124 32 32 0 17.671874-14.324219 32-32 32zm0 0"/><path d="m93.65625 6.054688h16v32h-16zm0 0"/><path d="m141.261719 51.140625 22.625-22.628906 11.316406 11.3125-22.628906 22.628906zm0 0"/><path d="m165.65625 94.054688h32v16h-32zm0 0"/><path d="m141.257812 152.972656 11.316407-11.316406 22.625 22.628906-11.3125 11.3125zm0 0"/><path d="m93.65625 166.054688h16v32h-16zm0 0"/><path d="m28.117188 164.277344 22.628906-22.625 11.3125 11.3125-22.625 22.628906zm0 0"/><path d="m5.65625 94.054688h32v16h-32zm0 0"/><path d="m28.121094 39.832031 11.3125-11.316406 22.628906 22.628906-11.316406 11.3125zm0 0"/><path d="m445.65625 430.054688h-9.054688l7.710938-11.558594-13.3125-8.882813-16 24c-1.636719 2.457031-1.789062 5.613281-.398438 8.214844 1.394532 2.601563 4.105469 4.226563 7.054688 4.226563h9.058594l-7.714844 11.558593 13.3125 8.882813 16-24c1.640625-2.457032 1.792969-5.613282.398438-8.214844-1.390626-2.601562-4.101563-4.226562-7.054688-4.226562zm0 0"/><path d="m213.65625 94.054688h72v16h-72zm0 0"/><path d="m93.65625 214.054688h16v72h-16zm0 0"/><path d="m0 192.394531 16.804688-16.804687 11.316406 11.3125-16.808594 16.808594zm0 0"/><path d="m.503906 12.210938 11.3125-11.3125 16.304688 16.300781-11.3125 11.316406zm0 0"/><path d="m175.195312 17.207031 16.804688-16.804687 11.316406 11.3125-16.808594 16.804687zm0 0"/></svg>