<svg height="512" viewBox="0 0 61 60" width="512" xmlns="http://www.w3.org/2000/svg"><g id="Page-1" fill="none" fill-rule="evenodd"><g id="032---Cutting-Grass" fill="rgb(0,0,0)" fill-rule="nonzero" transform="translate(0 -1)"><path id="Shape" d="m55.982 29.24c-.8047098-.6129139-1.9425132-.5183488-2.635.219-3.5459609 3.6927842-6.5295506 7.8869936-8.855 12.448-.88-2.3-1.811-4.494-2.78-6.566 1.2145237-3.414113 2.6881464-6.7304328 4.408-9.92.479666-.8801411.2337237-1.9794164-.575268-2.5712443-.8089916-.591828-1.9311343-.4933924-2.624732.2302443-1.7832077 1.8743684-3.433859 3.8705205-4.94 5.974.1450715-2.6703861-1.3160226-5.1700609-3.714-6.354l-11.946-5.856-.253-.515c3.9244006-1.7145769 5.8025084-6.2155724 4.2606963-10.21100842-1.5418121-3.99543603-5.9566262-6.06803495-10.0154963-4.70192092-4.05887 1.36611403-6.32201686 5.68634737-5.1342 9.80092934-4.18081357-1.2168619-8.56803144 1.1285455-9.87840829 5.2809987-1.31037685 4.1524532.93598661 8.5911993 5.05798801 9.9944311 4.12200138 1.4032318 8.61004028-.7429563 10.10542028-4.8324298l6.2 12.644c.055.112.126.211.187.319-.053.084-.112.168-.162.25-2.2196904 3.4729963-4.1399455 7.1285063-5.74 10.927-2.084867-3.9395648-4.8011877-7.5108796-8.041-10.572-.72798345-.7019305-1.86538545-.7500018-2.65-.112-.79577601.6146771-.99367808 1.7336683-.457 2.584 3.88671889 6.4375618 6.0172512 13.7818471 6.179 21.3h-3.979c-.55228475 0-1 .4477153-1 1s.44771525 1 1 1h46c.5522847 0 1-.4477153 1-1s-.4477153-1-1-1h-4.064c-.30877-9.4810291 1.9663991-18.8675709 6.582-27.155.5149543-.877443.2835387-2.0021398-.536-2.605zm-11.619-4.774c-1.8337876 3.3968895-3.3966393 6.9332009-4.674 10.576-1.0039078 2.8463497-1.8455923 5.7473403-2.521 8.689-.0050551.0194373-.0090609.0391324-.012.059-.592 2.534-1.062 5.125-1.419 7.755-.6597821-3.2264162-1.5408644-6.4035917-2.637-9.509.9376974-2.3110457 2.019834-4.560821 3.24-6.736.8-1.408 1.689-2.827 2.643-4.216 1.6165423-2.3440208 3.4154542-4.5568832 5.38-6.618zm-18.394 25.206c.4918616 3.0894936.8156712 6.203407.97 9.328h-1.913c.1341151-3.1249219.4489749-6.2394627.943-9.328zm1.024-5.431c.466-2.08 1.028-4.159 1.653-6.206h.012c.2291199.0002775.4580981-.011405.686-.035.622 1.41 1.214 2.86 1.745 4.341 1.9179512 5.3837319 3.1914889 10.9756835 3.794 16.659h-5.941c-.2342978-4.9656473-.8862672-9.9027517-1.949-14.759zm11.136 4.964c.5161216 3.2423879.8021693 6.5172324.856 9.8h-1.921c.1648183-3.2845425.5204181-6.5567278 1.065-9.8zm-2.019-17.385c-.529.832-1.038 1.666-1.511 2.5-.916 1.628-1.755 3.308-2.519 5.013-.251-.627-.515-1.239-.782-1.851.246329-.109953.4371907-.3155714.5285285-.5693923s.0752577-.5339077-.0445285-.7756077l-4.157-8.476 8.475 4.157zm-2.726-7.328c1.8688378.9194484 2.9056235 2.9628617 2.544 5.014l-9.742-4.778-2.429-4.952zm-18.763-19.735c1.9202984-1.91997311 4.8907133-2.31088267 7.2423673-.95310275 2.3516539 1.35777992 3.4982322 4.12572738 2.7955491 6.74871785-.7026831 2.6229905-3.0794344 4.4470596-5.7949164 4.4473849-.178 0-.354-.011-.529-.026h-.07c-2.3083286-.2299376-4.2773023-1.7699095-5.0565847-3.9548515-.7792824-2.18494196-.2292388-4.62334773 1.4125847-6.2621485zm-1.414 18.385c-1.7159567 1.7160705-4.29669487 2.2294779-6.53879006 1.3008153-2.24209519-.9286627-3.70399131-3.1165056-3.70399131-5.5433153s1.46189612-4.6146526 3.70399131-5.5433153c2.24209519-.9286626 4.82283336-.4152552 6.53879006 1.3008153 1.1347847 1.1200592 1.7735527 2.6480506 1.7735527 4.2425s-.638768 3.1224408-1.7735527 4.2425zm3.7-5.119c-.0485283-.4523221-.1358497-.8996355-.261-1.337.7210611.2076427 1.4676374.3133347 2.218.314.4194438-.002963.8380284-.0384023 1.252-.106l9.354 19.07c-1.7601504.3112538-3.5437155-.4083827-4.595-1.854-.007-.011-.016-.021-.024-.032-.1486995-.208106-.2804559-.4278115-.394-.657zm7.263 18.261c.7150794.6521082 1.5633131 1.1410539 2.486 1.433-.627 2.076-1.2 4.181-1.662 6.287-.0064485.0276737-.0111247.0557307-.014.084-1.0912727 4.9031763-1.746495 9.893307-1.958 14.912h-2.069c-.3464499-3.7230757-1.3053504-7.3633835-2.838-10.774 1.6289233-4.1664269 3.6566818-8.1656825 6.055-11.942zm-16.643.391c6.3309222 5.8527621 10.3750371 13.7655461 11.41 22.325h-4.958c-.1617838-7.8777786-2.3864305-15.5754286-6.452-22.325zm33.458 22.325c-.0859422-5.0577615-.6958675-10.092996-1.82-15.025.455-1.96.995-3.923 1.609-5.863.931 2.117 1.821 4.352 2.655 6.676 1.6639144 4.6628993 3.0933698 9.4061681 4.283 14.212zm7.09-6.364c-.824-2.836-1.7-5.556-2.625-8.139 2.3364984-5.0304416 5.4886764-9.6399402 9.329-13.642-3.7742642 6.6940656-6.0608847 14.1231944-6.704 21.781z"/><path id="Shape" d="m60 59h-2c-.5522847 0-1 .4477153-1 1s.4477153 1 1 1h2c.5522847 0 1-.4477153 1-1s-.4477153-1-1-1z"/><path id="Shape" d="m4 59h-2c-.55228475 0-1 .4477153-1 1s.44771525 1 1 1h2c.55228475 0 1-.4477153 1-1s-.44771525-1-1-1z"/><path id="Shape" d="m18.864 13c1.9082655-.0005466 3.5504151-1.3489824 3.9222024-3.22067995.3717874-1.8716976-.6303318-3.74538149-2.3935178-4.47521212-1.7631861-.72983062-3.7963844-.11254713-4.8562053 1.47435464-1.059821 1.58690177-.8511001 3.70146313.4985207 5.05053743.748558.752799 1.7673819 1.1745179 2.829 1.171zm-1.415-5.414c.7809306-.78120675 2.0472932-.78143059 2.8285-.00049997.7812067.78093062.7814306 2.04729319.0005 2.82849997-.7923179.7539051-2.0366821.7539051-2.829 0-.7807639-.7809997-.7807639-2.0470003 0-2.828z"/><path id="Shape" d="m6.136 16.071c-1.14424246 1.1438969-1.4866869 2.864463-.86763369 4.3593089s2.07767478 2.4695453 3.69563369 2.4695453c1.6179589 0 3.0765805-.9746994 3.6956337-2.4695453s.2766088-3.215412-.8676337-4.3593089c-1.5619994-1.5615278-4.09400059-1.5615278-5.656 0zm4.242 4.243c-.6743454.6750959-1.73168068.7797922-2.52532741.2500554-.79364673-.5297369-1.10253866-1.5463513-.73775394-2.4280703.36478473-.881719 1.30163719-1.3829442 2.23756764-1.1971204.93593041.1858237 1.61024021 1.0069361 1.61051371 1.9611353.000152.5302461-.2102679 1.0388509-.585 1.414z"/></g></g></svg>