<?xml version="1.0" encoding="iso-8859-1"?>
<!-- Generator: Adobe Illustrator 19.0.0, SVG Export Plug-In . SVG Version: 6.00 Build 0)  -->
<svg version="1.1" id="Capa_1" xmlns="http://www.w3.org/2000/svg" xmlns:xlink="http://www.w3.org/1999/xlink" x="0px" y="0px"
	 viewBox="0 0 512.001 512.001" style="enable-background:new 0 0 512.001 512.001;" xml:space="preserve">
<g>
	<g>
		<path d="M498.831,392.769L356.6,250.538c-1.731-1.731-3.59-3.301-5.551-4.714l37.452-37.451
			c33.573,5.969,68.433-4.793,92.757-29.116c31.418-31.418,39.664-79.45,20.521-119.521c-4.461-9.336-16.832-11.45-24.143-4.141
			c-8.91,8.909-1.133,1.35-44.851,43.412h-19.776V79.233c42.062-43.718,34.504-35.942,43.412-44.85
			c7.318-7.317,5.186-19.686-4.141-24.141C412.212-8.903,364.178-0.656,332.761,30.761c-24.323,24.323-35.086,59.183-29.116,92.757
			l-37.033,37.033l-11.898-11.897c-5.858-5.858-15.356-5.858-21.213,0l-10.607,10.607l-76.219-76.219V46.827
			c0-6.457-4.131-12.188-10.256-14.23L40.958,0.776C35.569-1.02,29.625,0.382,25.607,4.4L4.394,25.613
			c-4.018,4.018-5.42,9.96-3.624,15.35l31.821,95.461c2.042,6.125,7.774,10.257,14.23,10.257h36.214l76.219,76.219l-10.607,10.607
			c-5.854,5.854-5.857,15.356,0,21.213l11.898,11.898l-37.033,37.032c-33.574-5.968-68.434,4.794-92.757,29.116
			c-40.94,40.94-40.94,107.555,0,148.495c40.939,40.939,107.554,40.942,148.495,0c24.323-24.323,35.086-59.183,29.117-92.757
			l37.451-37.452c1.412,1.961,2.983,3.82,4.713,5.551l142.232,142.231c17.545,17.545,46.095,17.546,63.641,0
			c23.894-23.893,25.188-25.188,42.427-42.427C516.377,438.864,516.377,410.314,498.831,392.769z M330.669,138.922
			c3.786-3.786,5.268-9.304,3.886-14.478c-6.897-25.824,0.544-53.593,19.42-72.47c17.052-17.051,40.951-24.55,63.999-21.173
			L387.2,62.788c-2.688,2.795-4.19,6.522-4.19,10.4v40.82c0,8.284,6.716,15,15,15h40.82c3.878,0,7.605-1.502,10.399-4.191
			l31.988-30.776c3.376,23.05-4.122,46.949-21.173,64c-18.876,18.875-46.644,26.319-72.47,19.42
			c-5.175-1.381-10.689,0.099-14.476,3.883l-53.188,53.187c-13.52-5.728-23.548-17.775-26.511-32.586
			c-1.137-5.681-1.986-11.679-6.523-19.234L330.669,138.922z M99.855,121.075c-2.813-2.813-6.628-4.393-10.606-4.393H57.633
			l-25.471-76.41l8.103-8.103l76.41,25.47v31.616c0,3.978,1.581,7.793,4.394,10.607l80.612,80.612l-21.213,21.213L99.855,121.075z
			 M181.343,373.102c-3.787,3.786-5.267,9.304-3.886,14.477c6.897,25.825-0.544,53.593-19.42,72.47
			c-29.244,29.243-76.826,29.243-106.068,0c-29.243-29.243-29.243-76.825,0-106.068c18.876-18.876,46.646-26.32,72.47-19.42
			c5.173,1.382,10.691-0.099,14.477-3.885l43.793-43.792c7.486,4.496,13.381,5.352,19.234,6.523
			c14.811,2.962,26.859,12.991,32.587,26.511L181.343,373.102z M477.618,435.195l-10.608,10.607L328.963,307.755
			c-5.857-5.858-15.355-5.858-21.214,0c-5.858,5.858-5.858,15.355,0,21.214l138.048,138.048l-10.606,10.606
			c-5.851,5.85-15.366,5.848-21.215,0L271.745,335.391c-3.769-3.77-4.05-7.408-5.083-12.568
			c-5.957-29.785-29.052-52.879-58.836-58.836c-5.15-1.03-8.795-1.31-12.568-5.083l-14.79-14.79l63.641-63.641l14.791,14.791
			c3.777,3.777,4.056,7.433,5.083,12.568c5.957,29.784,29.052,52.879,58.836,58.836c5.155,1.031,8.795,1.31,12.567,5.083
			l142.232,142.231C483.467,419.83,483.467,429.347,477.618,435.195z"/>
	</g>
</g>
<g>
	<g>
		<path d="M136.824,375.194c-17.587-17.586-46.053-17.589-63.641,0c-17.546,17.546-17.546,46.095,0,63.641
			c17.587,17.587,46.052,17.588,63.641,0C154.37,421.289,154.37,392.741,136.824,375.194z M115.609,417.621
			c-5.863,5.862-15.35,5.863-21.213,0c-5.848-5.848-5.848-15.365,0-21.213c5.861-5.862,15.35-5.862,21.213,0
			C121.459,402.257,121.459,411.773,115.609,417.621z"/>
	</g>
</g>
<g>
</g>
<g>
</g>
<g>
</g>
<g>
</g>
<g>
</g>
<g>
</g>
<g>
</g>
<g>
</g>
<g>
</g>
<g>
</g>
<g>
</g>
<g>
</g>
<g>
</g>
<g>
</g>
<g>
</g>
</svg>
