<svg id="icons" enable-background="new 0 0 64 64" height="512" viewBox="0 0 64 64" width="512" xmlns="http://www.w3.org/2000/svg"><g><g><path d="m63 59.504h-62c-.553 0-1-.447-1-1s.447-1 1-1h62c.553 0 1 .447 1 1s-.447 1-1 1z"/></g><g><path d="m16.006 59.504c-.553 0-1-.447-1-1v-27c0-.553.447-1 1-1s1 .447 1 1v27c0 .553-.447 1-1 1z"/></g><g><path d="m16.002 46.508c-8.271 0-15-6.729-15-15s6.729-15 15-15 15 6.729 15 15-6.729 15-15 15zm0-28c-7.168 0-13 5.832-13 13s5.832 13 13 13 13-5.832 13-13-5.832-13-13-13z"/></g><g><path d="m16.006 40.504c-.256 0-.512-.098-.707-.293-.391-.391-.391-1.023 0-1.414l4.997-4.998c.391-.391 1.023-.391 1.414 0s.391 1.023 0 1.414l-4.997 4.998c-.195.195-.451.293-.707.293z"/></g><g><path d="m47.995 59.504c-.553 0-1-.447-1-1v-27c0-.553.447-1 1-1s1 .447 1 1v27c0 .553-.447 1-1 1z"/></g><g><path d="m48 48.51c-8.271 0-15-6.729-15-15 0-7.233 6.058-29.014 15-29.014s15 21.78 15 29.014c0 8.271-6.729 15-15 15zm0-42.014c-6.819 0-13 19.447-13 27.014 0 7.168 5.832 13 13 13s13-5.832 13-13c0-7.567-6.181-27.014-13-27.014z"/></g><g><path d="m47.995 40.504c-.256 0-.512-.098-.707-.293l-4.997-4.998c-.391-.391-.391-1.023 0-1.414s1.023-.391 1.414 0l4.997 4.998c.391.391.391 1.023 0 1.414-.195.195-.451.293-.707.293z"/></g><g><path d="m2.002 59.504c-.553 0-1-.447-1-1v-1c0-.553.447-1 1-1s1 .447 1 1v1c0 .553-.447 1-1 1z"/></g><g><path d="m6 59.504c-.553 0-1-.447-1-1v-1c0-.553.447-1 1-1s1 .447 1 1v1c0 .553-.447 1-1 1z"/></g><g><path d="m9.998 59.504c-.553 0-1-.447-1-1v-1c0-.553.447-1 1-1s1 .447 1 1v1c0 .553-.447 1-1 1z"/></g><g><path d="m13.996 59.504c-.553 0-1-.447-1-1v-1c0-.553.447-1 1-1s1 .447 1 1v1c0 .553-.447 1-1 1z"/></g><g><path d="m17.994 59.504c-.553 0-1-.447-1-1v-1c0-.553.447-1 1-1s1 .447 1 1v1c0 .553-.447 1-1 1z"/></g><g><path d="m21.992 59.504c-.553 0-1-.447-1-1v-1c0-.553.447-1 1-1s1 .447 1 1v1c0 .553-.447 1-1 1z"/></g><g><path d="m25.99 59.504c-.553 0-1-.447-1-1v-2.999c0-.553.447-1 1-1s1 .447 1 1v2.999c0 .553-.447 1-1 1z"/></g><g><path d="m37.984 59.504c-.553 0-1-.447-1-1v-2.999c0-.553.447-1 1-1s1 .447 1 1v2.999c0 .553-.447 1-1 1z"/></g><g><path d="m41.982 59.504c-.553 0-1-.447-1-1v-1c0-.553.447-1 1-1s1 .447 1 1v1c0 .553-.447 1-1 1z"/></g><g><path d="m45.98 59.504c-.553 0-1-.447-1-1v-1c0-.553.447-1 1-1s1 .447 1 1v1c0 .553-.447 1-1 1z"/></g><g><path d="m49.979 59.504c-.553 0-1-.447-1-1v-1c0-.553.447-1 1-1s1 .447 1 1v1c0 .553-.448 1-1 1z"/></g><g><path d="m53.977 59.504c-.553 0-1-.447-1-1v-1c0-.553.447-1 1-1s1 .447 1 1v1c0 .553-.448 1-1 1z"/></g><g><path d="m57.975 59.504c-.553 0-1-.447-1-1v-1c0-.553.447-1 1-1s1 .447 1 1v1c0 .553-.448 1-1 1z"/></g><g><path d="m61.973 59.504c-.553 0-1-.447-1-1v-1c0-.553.447-1 1-1s1 .447 1 1v1c0 .553-.448 1-1 1z"/></g><g><path d="m29.988 56.505c-.553 0-1-.447-1-1 0-.551-.448-.999-.999-.999s-.999.448-.999.999c0 .553-.447 1-1 1s-1-.447-1-1c0-1.653 1.346-2.999 2.999-2.999s2.999 1.346 2.999 2.999c0 .553-.447 1-1 1z"/></g><g><path d="m33.999 55.504c-.553 0-1-.447-1-1 0-.551-.448-.999-.999-.999s-.999.448-.999.999c0 .553-.447 1-1 1s-1-.447-1-1c0-1.653 1.346-2.999 2.999-2.999s2.999 1.346 2.999 2.999c0 .553-.447 1-1 1z"/></g><g><path d="m37.999 56.505c-.553 0-1-.447-1-1 0-.551-.448-.999-.999-.999s-.999.448-.999.999c0 .553-.447 1-1 1s-1-.447-1-1c0-1.653 1.346-2.999 2.999-2.999s2.999 1.346 2.999 2.999c0 .553-.447 1-1 1z"/></g><g><path d="m30.001 56.505c-.553 0-1-.447-1-1v-1.001c0-.553.447-1 1-1s1 .447 1 1v1.001c0 .553-.447 1-1 1z"/></g><g><path d="m33.999 56.505c-.553 0-1-.447-1-1v-1.001c0-.553.447-1 1-1s1 .447 1 1v1.001c0 .553-.447 1-1 1z"/></g></g></svg>