<svg id="Layer_1" enable-background="new 0 0 512.14 512.14" height="512" viewBox="0 0 512.14 512.14" width="512" xmlns="http://www.w3.org/2000/svg"><path d="m87.467 99.388h72.159c17.284 0 31.345-14.062 31.345-31.345 0-15.972-12.006-29.191-27.468-31.106-1.664-20.587-18.949-36.829-39.957-36.829s-38.293 16.241-39.957 36.828c-15.461 1.915-27.468 15.135-27.468 31.106 0 17.284 14.062 31.346 31.346 31.346zm0-47.691c8.833 0 10.991-2.974 10.991-11.501 0-32.283 50.177-32.504 50.177 0 0 8.528 2.158 11.501 10.991 11.501 20.982 0 21.013 32.69 0 32.69h-72.159c-20.982.001-21.014-32.69 0-32.69z"/><path d="m388.947 319.608h22.896l87.256 93.073c6.71 7.158 17.498-3.267 10.943-10.259l-77.638-82.814h29.901l37.58 30.064c7.275 5.821 17.247-5.411 9.37-11.713l-22.939-18.352h18.254c9.697 0 9.697-15 0-15h-267.642c75.982-57.431 175.176-75.511 264.985-41.486 9.07 3.431 14.383-10.591 5.314-14.027-59.829-22.665-125.239-24.66-186.177-5.003-64.437-46.093-150.294-68.235-228.61-55.111-9.564 1.603-7.086 16.391 2.479 14.794 71.89-12.048 147.701 7.522 208.573 46.587-32.567 12.765-64.158 30.847-90.318 54.247h-205.604c-9.697 0-9.697 15 0 15h18.254l-22.939 18.351c-7.876 6.302 2.096 17.535 9.37 11.713l37.58-30.064h24.882l-72.619 77.46c-6.555 6.992 4.233 17.415 10.943 10.259l82.237-87.719h22.896l-116.664 159.996c-5.4 7.407 6.082 17.117 12.12 8.838l123.108-168.834h18.72l-94.55 181.536c-4.292 8.238 8.711 15.747 13.304 6.929l98.159-188.464h19.144l-57.114 182.763c-2.705 8.653 11.246 14.301 14.317 4.474l58.512-187.237c6.736.414 13.308-.489 20.06 0l-19.19 184.223c-.947 9.026 13.838 11.935 14.919 1.554l19.352-185.777h21.378l19.352 185.777c.99 9.508 15.919 7.975 14.919-1.554l-19.19-184.223h20.06l58.511 187.237c2.859 9.149 17.177 4.676 14.317-4.474l-57.113-182.763h19.144l58.378 112.086c4.354 8.361 17.772 1.65 13.304-6.929l-54.77-105.158h19.72l128.129 175.718c6.037 8.28 17.521-1.43 12.12-8.838z"/><path d="m422.556 457.643c-4.479-8.601-17.784-1.671-13.304 6.929l22.656 43.5c4.354 8.361 17.772 1.649 13.304-6.929z"/><path d="m318.156 152.694c-3.793 18.989 11.379 37.495 30.734 37.495h72.159c17.284 0 31.345-14.062 31.345-31.346 0-15.972-12.006-29.191-27.468-31.106-1.664-20.587-18.949-36.829-39.957-36.829s-38.293 16.242-39.957 36.829c-7.833.97-14.775 4.845-19.723 10.506-19.193-.17-34.756-15.83-34.756-35.062 0-19.337 15.732-35.07 35.07-35.07 10.352 0 20.123 4.541 26.809 12.458 6.257 7.408 17.718-2.269 11.46-9.678-9.542-11.3-23.491-17.781-38.269-17.781-27.609 0-50.07 22.461-50.07 50.07 0 25.079 18.534 45.906 42.623 49.514zm30.734-10.195c8.833 0 10.991-2.974 10.991-11.501 0-13.834 11.254-25.088 25.088-25.088s25.088 11.254 25.088 25.088c0 8.528 2.159 11.501 10.991 11.501 9.013 0 16.345 7.333 16.345 16.345 0 9.013-7.333 16.346-16.345 16.346h-72.158c-9.013 0-16.346-7.333-16.346-16.346.001-9.013 7.333-16.345 16.346-16.345z"/><path d="m7.576 233.715c1.2 0 2.417-.289 3.546-.896 14.649-7.88 29.796-14.422 45.02-19.443 9.209-3.038 4.51-17.284-4.699-14.245-16.052 5.295-32.008 12.185-47.426 20.479-6.919 3.721-3.798 14.105 3.559 14.105z"/></svg>