<svg fill="#fff" id="Image" height="512" viewBox="0 0 64 64" width="512" xmlns="http://www.w3.org/2000/svg"><g><path d="m56.818 51.339c-.147-.367-.243-1.531-.321-2.477-.169-2.053-.401-4.865-1.382-7.401-.424-1.098-1.306-3.181-2.159-5.195-.946-2.235-2.124-5.017-2.254-5.489-.498-1.805-1.024-3.956-1.533-6.036-.879-3.59-1.709-6.981-2.45-8.945-.674-1.789-1.37-2.728-2.254-3.045-.884-.318-1.624.107-1.867.248-1.588.914-1.333 4.077-.745 9.588.141 1.318.326 3.055.375 4.329-.516-1.111-1.212-2.893-2.026-5.463-2.051-6.482-3.181-8.746-4.648-9.316-.405-.157-1.04-.257-1.767.162-2.717 1.563-1.772 4.43.111 10.142.345 1.038.368 1.142 1.038 3.111.432 1.271.969 2.849 1.243 3.956-1.071-1.446-2.658-4.253-3.671-6.012-.8-1.38-1.477-2.57-2.058-3.589-2.445-4.292-3.183-5.588-4.392-5.917-.717-.193-1.33.08-1.782.34-.727.418-1.19.985-1.378 1.687-.49 1.83.884 4.468 4.377 10.497 1.349 2.329 2.5 4.771 3.1 6.291-1.02-.932-2.429-2.657-3.383-3.825-2.881-3.527-5.158-6.311-7.132-5.174-.668.384-1.121.959-1.31 1.664-.257.959-.019 2.08.708 3.332.412.712 1.59 2.254 3.219 4.388 2.47 3.234 7.363 9.641 8.221 11.926-.902-.375-2.52-1.547-3.664-2.375-3-2.173-6.099-4.421-8.192-3.217-.982.565-1.579 1.292-1.773 2.161-.621 2.77 1.765 2.721 7.229 7.832 2.36 2.201 4.556 4.497 8.659 7.047 3.781 2.349 8.557 3.08 9.143 3.575.55.95.948 2.162.953 2.174.409 1.257 2.313.647 1.902-.619-.019-.058-.465-1.421-1.124-2.559-.942-1.625-5.551-1.619-9.818-4.271-3.8-2.362-5.961-4.58-8.349-6.81-1.924-1.799-5.722-4.745-6.579-5.405-.052-.121-.114-.327-.062-.541.09-.367.494-.666.816-.851.968-.557 4.131 1.734 6.021 3.104 2.785 2.018 4.798 3.478 6.256 2.636.353-.203.593-.544.676-.961.358-1.783-2.402-5.778-8.726-14.058-1.465-1.918-2.73-3.575-3.079-4.177-.431-.743-.615-1.402-.505-1.811.034-.127.107-.294.306-.425h.001c.829 0 3.317 3.047 4.655 4.684 2.764 3.384 4.949 6.054 6.813 4.981.23-.132.446-.423.515-.68.438-1.631-3.722-8.961-3.765-9.035-2.635-4.548-4.477-7.854-4.175-8.977.022-.083.068-.255.444-.471.181-.104.265-.131.264-.141.463.214 1.603 2.214 3.175 4.974.583 1.023 1.262 2.216 2.065 3.602 2.797 4.759 4.8 8.863 6.792 7.719 1.461-.841.68-3.139-.739-7.31-.754-2.218-.572-1.709-1.032-3.094-1.761-5.342-2.259-7.065-.973-7.814 1.905.542 4.668 15.081 7.403 16.143.373.146.766.118 1.101-.076 1.205-.692 1.028-2.858.513-7.69-.26-2.434-.743-6.963-.248-7.643.133-.076.197-.092.199-.097.047.023.452.269 1.054 1.867.698 1.851 1.553 5.34 2.378 8.714.513 2.094 1.042 4.259 1.548 6.093.155.559.987 2.54 2.34 5.736.847 2 1.722 4.068 2.135 5.137.877 2.267 1.086 4.805 1.254 6.844.073.887.172 2.886.712 3.515l6.021 7.104c.357.421.988.475 1.409.116.421-.357.474-.988.116-1.409z"/><path d="m31.925 58.134c-5.044 1.588-9.408 2.609-12.003 2.824-.124-1.4-.31-2.789-.557-4.142-.099-.543-.614-.898-1.164-.804-.543.099-.903.62-.804 1.164.291 1.591.494 3.237.604 4.891.036.525.473.933.999.933 2.623 0 7.553-1.078 13.526-2.958.527-.166.819-.728.654-1.254-.166-.527-.728-.818-1.255-.654z"/><path d="m60.61 39.537c-2.488-3.177-3.858-4.927-5.654-10.828-.635-2.089-1.307-5.138-2.018-8.366-1.64-7.447-3.499-15.887-6.182-18.996-.342-.398-.936-.462-1.356-.147-4.029 3.022-8.819 3.917-13.451 4.783-3.527.659-7.175 1.341-10.471 2.952-1.886.922-4.378 2.834-7.263 5.047-4.095 3.142-8.737 6.703-12.554 8.076-.42.151-.689.563-.659 1.008.289 4.27 3.017 8.13 6.176 12.599 2.882 4.078 6.148 8.699 8.355 14.685.458 1.239 2.337.558 1.877-.691-2.298-6.234-5.646-10.97-8.599-15.148-2.791-3.949-5.225-7.394-5.736-10.856 3.937-1.626 8.396-5.047 12.357-8.086 2.683-2.059 5.218-4.003 6.924-4.837 3.051-1.492 6.407-2.119 9.959-2.783 4.559-.852 9.262-1.731 13.462-4.565 2.105 3.302 3.813 11.059 5.207 17.389.72 3.268 1.399 6.354 2.058 8.518 1.903 6.259 3.442 8.224 5.992 11.479.533.681 1.112 1.42 1.752 2.274-.601.859-1.488 1.772-2.646 2.723-.427.35-.489.98-.139 1.407.352.428.981.49 1.407.139 1.594-1.308 2.758-2.592 3.458-3.817.196-.344.172-.771-.063-1.089-.815-1.11-1.538-2.033-2.193-2.87z"/><path d="m16.372 53.071-3.805-1.521c-.506-.202-.912-.608-1.114-1.113l-1.524-3.808c-.153-.38-.52-.629-.929-.629s-.776.249-.928.628l-1.525 3.809c-.202.505-.608.911-1.114 1.113l-3.804 1.521c-.38.152-.629.52-.629.929s.249.777.628.929l3.805 1.521c.506.202.912.608 1.114 1.113l1.524 3.808c.153.38.52.629.929.629s.776-.249.928-.628l1.525-3.809c.202-.505.608-.911 1.114-1.113l3.804-1.521c.38-.152.629-.52.629-.929s-.249-.777-.628-.929zm-4.547 1.522c-1.012.404-1.825 1.216-2.229 2.227l-.596 1.489-.596-1.488c-.404-1.012-1.216-1.824-2.228-2.228l-1.483-.593 1.482-.593c1.013-.404 1.825-1.216 2.229-2.227l.596-1.489.596 1.488c.404 1.012 1.217 1.824 2.229 2.228l1.482.593z"/><path d="m51.629 7.929 2.717 1.086c.29.116.521.347.637.636l1.088 2.72c.153.38.52.629.929.629s.776-.249.928-.628l1.089-2.72c.115-.289.347-.521.637-.636l2.717-1.086c.38-.153.629-.521.629-.93s-.249-.777-.629-.929l-2.717-1.086c-.29-.116-.521-.347-.637-.636l-1.088-2.72c-.153-.38-.52-.629-.929-.629s-.776.249-.928.628l-1.089 2.72c-.115.289-.347.521-.637.636l-2.717 1.086c-.38.153-.629.521-.629.93s.249.777.629.929zm3.459-1.087c1.522-.608 1.818-1.997 1.912-2.15.074.122.378 1.538 1.912 2.15l.394.158-.395.158c-1.522.608-1.818 1.997-1.911 2.15-.074-.122-.378-1.538-1.912-2.15l-.394-.158z"/><path d="m1.629 8.929 3.261 1.304c.397.159.717.478.876.875l1.306 3.264c.152.379.519.628.928.628s.776-.249.928-.628l1.306-3.264c.159-.398.479-.717.876-.875l3.261-1.304c.38-.152.629-.52.629-.929s-.249-.777-.629-.929l-3.261-1.303c-.397-.159-.717-.478-.876-.875l-1.306-3.265c-.152-.379-.519-.628-.928-.628s-.776.249-.928.628l-1.306 3.264c-.16.398-.479.717-.876.876l-3.261 1.303c-.38.152-.629.52-.629.929s.249.777.629.929zm4.003-1.304c.903-.361 1.628-1.086 1.99-1.989l.378-.944.378.944c.362.903 1.087 1.628 1.99 1.989l.938.375-.938.375c-.903.361-1.628 1.086-1.99 1.989l-.378.944-.378-.944c-.362-.903-1.087-1.628-1.99-1.989l-.938-.375z"/></g></svg>