<svg id="icons" height="512" viewBox="0 0 340 340" width="512" xmlns="http://www.w3.org/2000/svg"><path d="m239 154.9a48.562 48.562 0 0 0 -47.3-7.286l-17.114 6.539a39.6 39.6 0 0 1 -41.845-8.778l-32.08-31.643a42.449 42.449 0 0 0 -65.43 7.2 152.948 152.948 0 0 0 -14.465 28.268 4 4 0 1 0 7.467 2.871 145.011 145.011 0 0 1 13.712-26.791 34.451 34.451 0 0 1 53.1-5.857l32.08 31.643a47.609 47.609 0 0 0 50.318 10.556l17.115-6.539a40.513 40.513 0 0 1 39.471 6.081l14.456 11.469a4 4 0 0 0 4.973-6.268z"/><path d="m330.511 215.356a3.971 3.971 0 0 0 .775-.078c.087-.017.167-.05.252-.073a3.974 3.974 0 0 0 .472-.147c.1-.04.192-.095.287-.143a3.787 3.787 0 0 0 .376-.2c.093-.06.177-.131.264-.2a4.066 4.066 0 0 0 .321-.265c.08-.076.15-.159.223-.241a3.919 3.919 0 0 0 .266-.322c.065-.09.121-.185.179-.281a3.87 3.87 0 0 0 .2-.364c.05-.106.091-.215.131-.325a3.978 3.978 0 0 0 .12-.389c.03-.119.052-.24.071-.364.011-.072.035-.139.042-.213.069-.7 1.442-16.061-9.31-23.206a40.2 40.2 0 0 0 .275-4.211 24.867 24.867 0 0 0 -13.269-22.511 25.487 25.487 0 0 0 -26.413 1.255 44.309 44.309 0 0 0 -12.5 13.2c-5.873-1.278-17.949-1.513-28.359 13.522-4.282.287-13.275 2.05-22.274 11.05-.067.065-6.875 6.5-15.3 6.5h-78.762c-13.341 0-21.626-10.576-21.741-10.724-8.805-11.226-19.737-10.426-26.763-7.418a19.624 19.624 0 0 0 -9.081-8.83 23.334 23.334 0 0 0 -13.525-1.527 28.7 28.7 0 0 0 -1.221-4.532 22.874 22.874 0 0 0 -17.725-14.852 23.815 23.815 0 0 0 -22.64 8.2c-6.195 7.367-9.712 16.646-10.455 27.579a4 4 0 1 0 7.982.541c.625-9.2 3.517-16.932 8.6-22.972a15.91 15.91 0 0 1 15.114-5.471 14.963 14.963 0 0 1 11.6 9.7 22.936 22.936 0 0 1 1.277 6.946 4 4 0 0 0 5.46 3.576c.065-.026 6.674-2.492 12.152.063 3.061 1.427 5.33 4.282 6.743 8.487a4 4 0 0 0 6.146 1.96c.45-.327 11.116-7.887 20 3.438a35.651 35.651 0 0 0 5.95 5.842h-95.942a4 4 0 0 0 0 8h70.728l-11 32.264a4 4 0 1 0 7.572 2.58l11.876-34.844h90.535l-10.561 30.994a4 4 0 1 0 7.572 2.58l11.443-33.574h87.942l-14.631 42.924h-251.476a4 4 0 0 0 0 8h20.448l-12.657 37.149a4 4 0 1 0 7.572 2.58l13.537-39.729h77.21l-17.455 51.212h-88.655a4 4 0 0 0 0 8h320a4 4 0 0 0 0-8h-51.394l17.456-51.212h33.938a4 4 0 0 0 0-8h-60.072l14.63-42.924zm-59.847 102.136h-163.049l17.456-51.212h82.2l-13.371 39.22a4 4 0 1 0 7.572 2.58l14.247-41.8h72.4zm-42.4-110.952c9.375-9.376 18.091-8.809 18.416-8.782a4.02 4.02 0 0 0 3.78-1.845c10.581-16.752 22.431-11.528 22.892-11.314a4 4 0 0 0 5.242-1.634 38.11 38.11 0 0 1 11.638-13.248 17.284 17.284 0 0 1 18.147-.859 16.993 16.993 0 0 1 9.074 15.376 29.393 29.393 0 0 1 -.563 5.529 4 4 0 0 0 2.256 4.561c5.6 2.517 7.024 8.939 7.343 13.032h-99.13c.519-.443.841-.75.908-.816z"/><path d="m292.58 53.485a38.979 38.979 0 1 0 -38.98 38.98 39.022 39.022 0 0 0 38.98-38.98zm-38.98 30.98a30.979 30.979 0 1 1 30.979-30.98 31.015 31.015 0 0 1 -30.979 30.98z"/><path d="m27.371 250.483a4 4 0 0 0 4-4 42.048 42.048 0 0 0 -2.108-12.783 4 4 0 1 0 -7.534 2.69 34.522 34.522 0 0 1 1.642 10.093 4 4 0 0 0 4 4z"/><path d="m45.042 223.926c-9.636 8.137-10.566 21.74-10.6 22.315a4 4 0 0 0 3.75 4.235c.083 0 .165.007.246.007a4 4 0 0 0 3.989-3.757c.006-.107.84-10.83 7.776-16.687a4 4 0 1 0 -5.161-6.113z"/><path d="m45.506 246.234a4 4 0 0 0 3.742 4.242c.085 0 .17.007.254.007a4 4 0 0 0 3.988-3.75 7.092 7.092 0 0 1 2.641-2.585 4 4 0 1 0 -4.266-6.767c-5.753 3.627-6.307 8.011-6.359 8.853z"/><path d="m53.861 305.049h.14a4 4 0 0 0 4-3.863c.424-12.3-5.234-18.981-5.475-19.258a3.978 3.978 0 0 0 -5.59-.416 4.02 4.02 0 0 0 -.486 5.619c.157.191 3.865 4.793 3.556 13.78a4 4 0 0 0 3.855 4.138z"/><path d="m64.819 304.969a4.077 4.077 0 0 0 .809.083 4 4 0 0 0 3.914-3.2c2.982-14.509.04-24.6-.086-25.018a4 4 0 0 0 -7.668 2.283c.025.086 2.468 8.718-.082 21.126a4 4 0 0 0 3.113 4.726z"/><path d="m76.129 305.051a4 4 0 0 0 3.988-3.758 13.8 13.8 0 0 1 1.561-4.679 4 4 0 0 0 -7.067-3.75 20.955 20.955 0 0 0 -2.479 7.945 4 4 0 0 0 3.75 4.234c.083.006.165.008.247.008z"/><path d="m109.313 250.483h.116a4 4 0 0 0 3.885-4.112c-.41-14.3-6.143-20.437-6.8-21.09a4.029 4.029 0 0 0 -5.681-.025 3.97 3.97 0 0 0 -.025 5.632c.042.045 4.188 4.624 4.5 15.712a4 4 0 0 0 4.005 3.883z"/><path d="m120.1 250.429a4.044 4.044 0 0 0 .663.055 4 4 0 0 0 3.94-3.342 32.371 32.371 0 0 0 -.15-11.123 4 4 0 0 0 -7.873 1.427 24.408 24.408 0 0 1 .133 8.379 4 4 0 0 0 3.287 4.604z"/><path d="m135.138 250.484a4 4 0 0 0 3.911-3.176c1.139-5.412 5.821-8.941 5.937-9.026a4 4 0 0 0 -4.686-6.482c-.3.213-7.28 5.317-9.08 13.862a4.005 4.005 0 0 0 3.918 4.825z"/><path d="m140.425 276.078a4 4 0 0 0 -5.231 6.053 26.4 26.4 0 0 1 8 18.92 4 4 0 0 0 8 0 34.554 34.554 0 0 0 -10.769-24.973z"/><path d="m156.828 284.481a4.02 4.02 0 0 0 -1.472 5.447c.095.168 2.306 4.179 1.552 10.661a4 4 0 0 0 3.512 4.435 4.071 4.071 0 0 0 .466.027 4 4 0 0 0 3.969-3.538c1.063-9.14-2.218-14.991-2.6-15.627a3.979 3.979 0 0 0 -5.427-1.405z"/><path d="m173.175 288.034a22.118 22.118 0 0 0 -6.2 12.569 4 4 0 0 0 3.526 4.422 3.876 3.876 0 0 0 .454.026 4 4 0 0 0 3.969-3.552 14.36 14.36 0 0 1 3.781-7.684 4 4 0 1 0 -5.53-5.781z"/><path d="m263.869 276.078a34.554 34.554 0 0 0 -10.769 24.973 4 4 0 1 0 8 0 26.4 26.4 0 0 1 8-18.919 4 4 0 0 0 -5.23-6.054z"/><path d="m247.515 284.483a4 4 0 0 0 -5.48 1.4c-.378.636-3.658 6.487-2.595 15.627a4 4 0 0 0 3.968 3.538 4.1 4.1 0 0 0 .467-.027 4 4 0 0 0 3.511-4.435c-.747-6.428 1.421-10.426 1.549-10.656a4 4 0 0 0 -1.42-5.447z"/><path d="m231.12 288.034a4 4 0 1 0 -5.53 5.781 14.459 14.459 0 0 1 3.782 7.706 4 4 0 0 0 3.968 3.53 3.859 3.859 0 0 0 .453-.026 4 4 0 0 0 3.526-4.422 22.116 22.116 0 0 0 -6.199-12.569z"/><path d="m216.729 250.483a4 4 0 0 0 4-4 34.045 34.045 0 0 0 -4.912-17.665 4 4 0 0 0 -6.871 4.1 26.143 26.143 0 0 1 3.783 13.565 4 4 0 0 0 4 4z"/><path d="m229.955 250.457a4.1 4.1 0 0 0 .467.026 4 4 0 0 0 3.968-3.538c1.063-9.138-2.216-14.989-2.594-15.627a4 4 0 0 0 -6.9 4.042c.094.167 2.305 4.18 1.552 10.661a4 4 0 0 0 3.507 4.436z"/><path d="m240.489 250.471a4.015 4.015 0 0 0 3.969-3.516 15.506 15.506 0 0 1 1.809-5.147 4 4 0 0 0 -6.938-3.985 23.062 23.062 0 0 0 -2.818 8.212 4 4 0 0 0 3.978 4.436z"/><path d="m313.8 250.476c.084 0 .166.007.248.007a4 4 0 0 0 3.989-3.755c.766-12.54-3.127-19.9-3.293-20.2a4 4 0 0 0 -7.036 3.807c.029.056 2.962 5.79 2.344 15.907a4 4 0 0 0 3.748 4.234z"/><path d="m301.559 234.4a4 4 0 0 0 -5.165 6.11c.029.024 2.908 2.609 2.908 5.972a4 4 0 1 0 8 0c-.002-7.022-5.155-11.582-5.743-12.082z"/><path d="m303.308 305.038c.109.009.218.013.326.013a4 4 0 0 0 3.982-3.678 47.131 47.131 0 0 0 -3.377-20.85 4 4 0 0 0 -7.314 3.242 39.527 39.527 0 0 1 2.718 16.964 4 4 0 0 0 3.665 4.309z"/><path d="m312.4 304.553a4 4 0 0 0 5.435-1.57c3.617-6.554 2.9-15.058 2.868-15.417a4 4 0 0 0 -7.969.707c.006.064.516 6.46-1.9 10.845a4 4 0 0 0 1.566 5.435z"/></svg>