<svg id="Capa_1" enable-background="new 0 0 512 512" height="512" viewBox="0 0 512 512" width="512" xmlns="http://www.w3.org/2000/svg"><g><path d="m512 301c0-37.877-27.919-72.1-65.942-82.118-7.808-28.092-31.367-51.004-60.717-59.424.43-2.783.659-5.605.659-8.458 0-30.327-24.673-55-55-55-3.943 0-7.82.409-11.604 1.223-12.185-34.283-41.588-61.223-78.396-61.223-45.628 0-84.483 41.896-87.774 92.979-6.526-1.965-13.343-2.979-20.226-2.979-38.598 0-70 31.402-70 70 0 9.036 1.731 17.891 5.053 26.141-40.085 14.42-68.053 52.113-68.053 93.859 0 29.144 15.173 58.178 40.168 77.874-4.66 8.217-7.168 17.552-7.168 27.126 0 13.285 4.735 25.484 12.605 35h-35.605c-5.523 0-10 4.478-10 10s4.477 10 10 10h492c5.522 0 10-4.478 10-10s-4.478-10-10-10h-35.605c7.87-9.516 12.605-21.715 12.605-35 0-17.003-7.758-32.226-19.917-42.323 30.827-13.379 52.917-43.566 52.917-77.677zm-88 65c-5.522 0-10 4.478-10 10s4.478 10 10 10c19.299 0 35 15.701 35 35s-15.701 35-35 35h-93.229l53.103-132.756 56.598-28.299c4.94-2.47 6.942-8.477 4.473-13.416-2.471-4.94-8.48-6.943-13.416-4.473l-45.529 22.764v-43.82c0-5.522-4.478-10-10-10s-10 4.478-10 10v58.074l-11.015 27.536-30.041-60.082c-2.47-4.94-8.48-6.943-13.416-4.473-4.94 2.47-6.942 8.477-4.473 13.416l37.992 75.984-35.818 89.545h-43.229v-35c0-5.522-4.478-10-10-10s-10 4.478-10 10v35h-42.192l-27.808-111.231v-58.769c0-5.522-4.477-10-10-10s-10 4.478-10 10v43.82l-45.528-22.764c-4.939-2.471-10.947-.469-13.417 4.473-2.47 4.939-.468 10.946 4.472 13.416l55.886 27.943 25.779 103.112h-95.192c-19.299 0-35-15.701-35-35 0-19.413 15.766-35 35-35 5.523 0 10-4.478 10-10s-4.477-10-10-10c-12.854 0-25.185 4.498-34.964 12.554-20.547-15.944-33.036-39.306-33.036-62.554 0-43.688 38.257-80 83-80 9.169 0 18.14 1.53 26.663 4.547 5.208 1.845 10.921-.884 12.764-6.09s-.883-10.921-6.09-12.764c-10.672-3.778-21.888-5.693-33.337-5.693-5.117 0-10.24.396-15.31 1.164-3.078-6.579-4.69-13.784-4.69-21.164 0-27.57 22.43-50 50-50 8.894 0 17.626 2.364 25.251 6.836 6.936 4.07 15.654-1.333 15.029-9.398-.186-2.399-.28-4.902-.28-7.438 0-43.364 31.14-80 68-80 28.178 0 53.708 23.147 62.085 56.29 1.52 6.013 8.086 9.196 13.749 6.691 4.461-1.978 9.228-2.981 14.166-2.981 19.299 0 35 15.701 35 35 0 1.734-.132 3.449-.38 5.14-1.546-.083-3.089-.14-4.62-.14-46.869 0-85 38.131-85 85 0 5.522 4.478 10 10 10s10-4.478 10-10c0-35.841 29.159-65 65-65 31.974 0 61.325 22.895 66.907 53.078.753 4.073 3.94 7.261 8.014 8.015 31.971 5.916 56.079 33.389 56.079 63.907 0 35.233-31.141 65-68 65z"/><circle cx="256" cy="376" r="10"/><path d="m256 341c5.522 0 10-4.478 10-10v-45c0-2.652-1.054-5.195-2.929-7.071l-29.196-29.196 30.579-48.391c1.01-1.599 1.546-3.451 1.546-5.342v-60c0-5.522-4.478-10-10-10s-10 4.478-10 10v57.105l-26.622 42.13-46.306-46.306c-3.905-3.903-10.237-3.904-14.142 0-3.905 3.905-3.906 10.237 0 14.143l87.07 87.071v40.857c0 5.522 4.478 10 10 10z"/></g></svg>